<?xml version="1.0" encoding="UTF-8" standalone="no"?><svg xmlns="http://www.w3.org/2000/svg" xmlns:xlink="http://www.w3.org/1999/xlink" contentScriptType="application/ecmascript" contentStyleType="text/css" height="343px" preserveAspectRatio="none" style="width:517px;height:343px;background:#FFFFFF;" version="1.1" viewBox="0 0 517 343" width="517px" zoomAndPan="magnify"><defs><filter height="300%" id="f1ow1t51it817c" width="300%" x="-1" y="-1"><feGaussianBlur result="blurOut" stdDeviation="2.0"/><feColorMatrix in="blurOut" result="blurOut2" type="matrix" values="0 0 0 0 0 0 0 0 0 0 0 0 0 0 0 0 0 0 .4 0"/><feOffset dx="4.0" dy="4.0" in="blurOut2" result="blurOut3"/><feBlend in="SourceGraphic" in2="blurOut3" mode="normal"/></filter></defs><g><!--MD5=[ddc81a99e012674b1d60002d12b3bcd5]
cluster bootstrap--><polygon fill="#FFFFFF" filter="url(#f1ow1t51it817c)" points="144,6,227,6,234,28.2969,296,28.2969,296,213,144,213,144,6" style="stroke:#000000;stroke-width:1.5;"/><line style="stroke:#000000;stroke-width:1.5;" x1="144" x2="234" y1="28.2969" y2="28.2969"/><text fill="#000000" font-family="sans-serif" font-size="14" font-weight="bold" lengthAdjust="spacing" textLength="77" x="148" y="20.9951">bootstrap</text><!--MD5=[cb643d2e99e3f88089b3a75eeb15303b]
cluster command--><polygon fill="#FFFFFF" filter="url(#f1ow1t51it817c)" points="320,114,402,114,409,136.2969,500,136.2969,500,213,320,213,320,114" style="stroke:#000000;stroke-width:1.5;"/><line style="stroke:#000000;stroke-width:1.5;" x1="320" x2="409" y1="136.2969" y2="136.2969"/><text fill="#000000" font-family="sans-serif" font-size="14" font-weight="bold" lengthAdjust="spacing" textLength="76" x="324" y="128.9951">command</text><!--MD5=[c59a16d3fcadadefd9f8a8868b25a4e7]
cluster net--><polygon fill="#FFFFFF" filter="url(#f1ow1t51it817c)" points="16,237,48,237,55,259.2969,310,259.2969,310,336,16,336,16,237" style="stroke:#000000;stroke-width:1.5;"/><line style="stroke:#000000;stroke-width:1.5;" x1="16" x2="55" y1="259.2969" y2="259.2969"/><text fill="#000000" font-family="sans-serif" font-size="14" font-weight="bold" lengthAdjust="spacing" textLength="26" x="20" y="251.9951">net</text><!--MD5=[bcf3ef5ec7f7f4d2c8efa1c005eb665a]
cluster plug--><polygon fill="#FFFFFF" filter="url(#f1ow1t51it817c)" points="334,237,374,237,381,259.2969,458,259.2969,458,336,334,336,334,237" style="stroke:#000000;stroke-width:1.5;"/><line style="stroke:#000000;stroke-width:1.5;" x1="334" x2="381" y1="259.2969" y2="259.2969"/><text fill="#000000" font-family="sans-serif" font-size="14" font-weight="bold" lengthAdjust="spacing" textLength="34" x="338" y="251.9951">plug</text><!--MD5=[18826ddc68954886090dcda6a3a893a2]
class Bootstrap--><rect codeLine="3" fill="#FEFECE" filter="url(#f1ow1t51it817c)" height="48" id="Bootstrap" style="stroke:#A80036;stroke-width:1.5;" width="94" x="173" y="149"/><ellipse cx="188" cy="165" fill="#ADD1B2" rx="11" ry="11" style="stroke:#A80036;stroke-width:1.0;"/><path d="M190.9688,170.6406 Q190.3906,170.9375 189.75,171.0781 Q189.1094,171.2344 188.4063,171.2344 Q185.9063,171.2344 184.5781,169.5938 Q183.2656,167.9375 183.2656,164.8125 Q183.2656,161.6875 184.5781,160.0313 Q185.9063,158.375 188.4063,158.375 Q189.1094,158.375 189.75,158.5313 Q190.4063,158.6875 190.9688,158.9844 L190.9688,161.7031 Q190.3438,161.125 189.75,160.8594 Q189.1563,160.5781 188.5313,160.5781 Q187.1875,160.5781 186.5,161.6563 Q185.8125,162.7188 185.8125,164.8125 Q185.8125,166.9063 186.5,167.9844 Q187.1875,169.0469 188.5313,169.0469 Q189.1563,169.0469 189.75,168.7813 Q190.3438,168.5 190.9688,167.9219 L190.9688,170.6406 Z " fill="#000000"/><text fill="#000000" font-family="sans-serif" font-size="12" lengthAdjust="spacing" textLength="62" x="202" y="169.1543">Bootstrap</text><line style="stroke:#A80036;stroke-width:1.5;" x1="174" x2="266" y1="181" y2="181"/><line style="stroke:#A80036;stroke-width:1.5;" x1="174" x2="266" y1="189" y2="189"/><!--MD5=[13340087e45aee367d23b9150a2e3e63]
class HaltCommand--><rect codeLine="6" fill="#FEFECE" filter="url(#f1ow1t51it817c)" height="48" id="HaltCommand" style="stroke:#A80036;stroke-width:1.5;" width="119" x="160.5" y="41"/><ellipse cx="175.5" cy="57" fill="#ADD1B2" rx="11" ry="11" style="stroke:#A80036;stroke-width:1.0;"/><path d="M178.4688,62.6406 Q177.8906,62.9375 177.25,63.0781 Q176.6094,63.2344 175.9063,63.2344 Q173.4063,63.2344 172.0781,61.5938 Q170.7656,59.9375 170.7656,56.8125 Q170.7656,53.6875 172.0781,52.0313 Q173.4063,50.375 175.9063,50.375 Q176.6094,50.375 177.25,50.5313 Q177.9063,50.6875 178.4688,50.9844 L178.4688,53.7031 Q177.8438,53.125 177.25,52.8594 Q176.6563,52.5781 176.0313,52.5781 Q174.6875,52.5781 174,53.6563 Q173.3125,54.7188 173.3125,56.8125 Q173.3125,58.9063 174,59.9844 Q174.6875,61.0469 176.0313,61.0469 Q176.6563,61.0469 177.25,60.7813 Q177.8438,60.5 178.4688,59.9219 L178.4688,62.6406 Z " fill="#000000"/><text fill="#000000" font-family="sans-serif" font-size="12" lengthAdjust="spacing" textLength="87" x="189.5" y="61.1543">HaltCommand</text><line style="stroke:#A80036;stroke-width:1.5;" x1="161.5" x2="278.5" y1="73" y2="73"/><line style="stroke:#A80036;stroke-width:1.5;" x1="161.5" x2="278.5" y1="81" y2="81"/><!--MD5=[1f9aadf9591fbba4114482c72b3adefb]
class AbstractCommand--><rect codeLine="11" fill="#FEFECE" filter="url(#f1ow1t51it817c)" height="48" id="AbstractCommand" style="stroke:#A80036;stroke-width:1.5;" width="147" x="336.5" y="149"/><ellipse cx="351.5" cy="165" fill="#ADD1B2" rx="11" ry="11" style="stroke:#A80036;stroke-width:1.0;"/><path d="M354.4688,170.6406 Q353.8906,170.9375 353.25,171.0781 Q352.6094,171.2344 351.9063,171.2344 Q349.4063,171.2344 348.0781,169.5938 Q346.7656,167.9375 346.7656,164.8125 Q346.7656,161.6875 348.0781,160.0313 Q349.4063,158.375 351.9063,158.375 Q352.6094,158.375 353.25,158.5313 Q353.9063,158.6875 354.4688,158.9844 L354.4688,161.7031 Q353.8438,161.125 353.25,160.8594 Q352.6563,160.5781 352.0313,160.5781 Q350.6875,160.5781 350,161.6563 Q349.3125,162.7188 349.3125,164.8125 Q349.3125,166.9063 350,167.9844 Q350.6875,169.0469 352.0313,169.0469 Q352.6563,169.0469 353.25,168.7813 Q353.8438,168.5 354.4688,167.9219 L354.4688,170.6406 Z " fill="#000000"/><text fill="#000000" font-family="sans-serif" font-size="12" lengthAdjust="spacing" textLength="115" x="365.5" y="169.1543">AbstractCommand</text><line style="stroke:#A80036;stroke-width:1.5;" x1="337.5" x2="482.5" y1="181" y2="181"/><line style="stroke:#A80036;stroke-width:1.5;" x1="337.5" x2="482.5" y1="189" y2="189"/><!--MD5=[df527adb01e773a20cc249aa0558846e]
class AbstractConsumer--><rect codeLine="15" fill="#FEFECE" filter="url(#f1ow1t51it817c)" height="48" id="AbstractConsumer" style="stroke:#A80036;stroke-width:1.5;" width="148" x="146" y="272"/><ellipse cx="161" cy="288" fill="#ADD1B2" rx="11" ry="11" style="stroke:#A80036;stroke-width:1.0;"/><path d="M163.9688,293.6406 Q163.3906,293.9375 162.75,294.0781 Q162.1094,294.2344 161.4063,294.2344 Q158.9063,294.2344 157.5781,292.5938 Q156.2656,290.9375 156.2656,287.8125 Q156.2656,284.6875 157.5781,283.0313 Q158.9063,281.375 161.4063,281.375 Q162.1094,281.375 162.75,281.5313 Q163.4063,281.6875 163.9688,281.9844 L163.9688,284.7031 Q163.3438,284.125 162.75,283.8594 Q162.1563,283.5781 161.5313,283.5781 Q160.1875,283.5781 159.5,284.6563 Q158.8125,285.7188 158.8125,287.8125 Q158.8125,289.9063 159.5,290.9844 Q160.1875,292.0469 161.5313,292.0469 Q162.1563,292.0469 162.75,291.7813 Q163.3438,291.5 163.9688,290.9219 L163.9688,293.6406 Z " fill="#000000"/><text fill="#000000" font-family="sans-serif" font-size="12" lengthAdjust="spacing" textLength="116" x="175" y="292.1543">AbstractConsumer</text><line style="stroke:#A80036;stroke-width:1.5;" x1="147" x2="293" y1="304" y2="304"/><line style="stroke:#A80036;stroke-width:1.5;" x1="147" x2="293" y1="312" y2="312"/><!--MD5=[417ea5a53cccf34f8356a03a09bde4c0]
class Inject--><rect codeLine="16" fill="#FEFECE" filter="url(#f1ow1t51it817c)" height="48" id="Inject" style="stroke:#A80036;stroke-width:1.5;" width="79" x="31.5" y="272"/><ellipse cx="46.5" cy="288" fill="#B4A7E5" rx="11" ry="11" style="stroke:#A80036;stroke-width:1.0;"/><path d="M42.4219,283.7656 L42.4219,281.6094 L49.8125,281.6094 L49.8125,283.7656 L47.3438,283.7656 L47.3438,291.8438 L49.8125,291.8438 L49.8125,294 L42.4219,294 L42.4219,291.8438 L44.8906,291.8438 L44.8906,283.7656 L42.4219,283.7656 Z " fill="#000000"/><text fill="#000000" font-family="sans-serif" font-size="12" font-style="italic" lengthAdjust="spacing" textLength="35" x="60.5" y="292.1543">Inject</text><rect fill="#FFFFFF" height="15.9688" style="stroke:#000000;stroke-width:1.0;stroke-dasharray:2.0,2.0;" width="10" x="103.5" y="269"/><text fill="#000000" font-family="sans-serif" font-size="12" font-style="italic" lengthAdjust="spacing" textLength="8" x="104.5" y="281.1387">E</text><line style="stroke:#A80036;stroke-width:1.5;" x1="32.5" x2="109.5" y1="304" y2="304"/><line style="stroke:#A80036;stroke-width:1.5;" x1="32.5" x2="109.5" y1="312" y2="312"/><!--MD5=[74a5d4e25be13cad6ac2f676736de487]
class Pluggable--><rect codeLine="20" fill="#FEFECE" filter="url(#f1ow1t51it817c)" height="48" id="Pluggable" style="stroke:#A80036;stroke-width:1.5;" width="93" x="349.5" y="272"/><ellipse cx="364.5" cy="288" fill="#B4A7E5" rx="11" ry="11" style="stroke:#A80036;stroke-width:1.0;"/><path d="M360.4219,283.7656 L360.4219,281.6094 L367.8125,281.6094 L367.8125,283.7656 L365.3438,283.7656 L365.3438,291.8438 L367.8125,291.8438 L367.8125,294 L360.4219,294 L360.4219,291.8438 L362.8906,291.8438 L362.8906,283.7656 L360.4219,283.7656 Z " fill="#000000"/><text fill="#000000" font-family="sans-serif" font-size="12" font-style="italic" lengthAdjust="spacing" textLength="61" x="378.5" y="292.1543">Pluggable</text><line style="stroke:#A80036;stroke-width:1.5;" x1="350.5" x2="441.5" y1="304" y2="304"/><line style="stroke:#A80036;stroke-width:1.5;" x1="350.5" x2="441.5" y1="312" y2="312"/><!--MD5=[e8a8b181bb9cb0ea134798ef16cdf714]
link Bootstrap to AbstractConsumer--><path codeLine="23" d="M220,197.04 C220,212.42 220,233.12 220,251.53 " fill="none" id="Bootstrap-to-AbstractConsumer" style="stroke:#A80036;stroke-width:1.0;"/><polygon fill="none" points="227,251.63,220,271.63,213,251.63,227,251.63" style="stroke:#A80036;stroke-width:1.0;"/><!--MD5=[005768f28a3dbc405d0153e5cd278166]
link Bootstrap to Inject--><path codeLine="24" d="M175.02,197.05 C159.4,206.02 142.25,217.03 128,229 C118.35,237.11 108.94,246.93 100.64,256.48 " fill="none" id="Bootstrap-to-Inject" style="stroke:#A80036;stroke-width:1.0;stroke-dasharray:7.0,7.0;"/><polygon fill="none" points="106,260.99,87.88,271.97,95.2,252.09,106,260.99" style="stroke:#A80036;stroke-width:1.0;"/><!--MD5=[616bd20ee51c3ec261249490f3be27c8]
link Bootstrap to Pluggable--><path codeLine="25" d="M260,197.21 C275.82,206.7 294,218.02 310,229 C323.86,238.51 338.51,249.42 351.72,259.59 " fill="none" id="Bootstrap-to-Pluggable" style="stroke:#A80036;stroke-width:1.0;stroke-dasharray:7.0,7.0;"/><polygon fill="none" points="356.05,254.09,367.51,271.92,347.44,265.13,356.05,254.09" style="stroke:#A80036;stroke-width:1.0;"/><!--MD5=[907132665d338afde3e408cdaacbda06]
link HaltCommand to AbstractCommand--><path codeLine="27" d="M264.77,89.18 C275.07,94.62 285.95,100.45 296,106 C314.84,116.41 335.24,128.08 353.5,138.69 " fill="none" id="HaltCommand-to-AbstractCommand" style="stroke:#A80036;stroke-width:1.0;"/><polygon fill="none" points="357.17,132.73,370.92,148.85,350.11,144.82,357.17,132.73" style="stroke:#A80036;stroke-width:1.0;"/><!--MD5=[94674a5ac32b733dde9e083a3b36bc25]
link HaltCommand to Bootstrap--><path codeLine="28" d="M220,89 C220,105 220,126.45 220,143.53 " fill="none" id="HaltCommand-to-Bootstrap" style="stroke:#A80036;stroke-width:1.0;stroke-dasharray:7.0,7.0;"/><polygon fill="#A80036" points="220,148.68,224,139.68,220,143.68,216,139.68,220,148.68" style="stroke:#A80036;stroke-width:1.0;"/><!--MD5=[1c59d05445bad2cd613b2ddef5fcdf73]
@startuml

package bootstrap {
    class Bootstrap {
    }

    class HaltCommand {
    }
}

package command {
    class AbstractCommand
}

package net {
    class AbstractConsumer
    interface Inject<E>
}

package plug {
    interface Pluggable
}

Bootstrap - -|> AbstractConsumer
Bootstrap ..|> Inject
Bootstrap ..|> Pluggable

HaltCommand - -|> AbstractCommand
HaltCommand ..> Bootstrap

@enduml

PlantUML version 1.2022.0(Tue Jan 11 17:16:42 CET 2022)
(GPL source distribution)
Java Runtime: OpenJDK Runtime Environment
JVM: OpenJDK 64-Bit Server VM
Default Encoding: UTF-8
Language: en
Country: US
--></g></svg>